<svg xmlns="http://www.w3.org/2000/svg" xmlns:xlink="http://www.w3.org/1999/xlink" width="450" zoomAndPan="magnify" viewBox="0 0 337.5 337.500003" height="450" preserveAspectRatio="xMidYMid meet" version="1.0"><defs><clipPath id="f8445bb695"><path d="M 2.382812 2.382812 L 169 2.382812 L 169 169 L 2.382812 169 Z M 2.382812 2.382812 " clip-rule="nonzero"/></clipPath><clipPath id="e31dd43a6b"><path d="M 2.382812 168 L 169 168 L 169 334.890625 L 2.382812 334.890625 Z M 2.382812 168 " clip-rule="nonzero"/></clipPath><clipPath id="79634ed37e"><path d="M 168 2.382812 L 334.890625 2.382812 L 334.890625 169 L 168 169 Z M 168 2.382812 " clip-rule="nonzero"/></clipPath><clipPath id="478a6eae84"><path d="M 168 168 L 334.890625 168 L 334.890625 334.890625 L 168 334.890625 Z M 168 168 " clip-rule="nonzero"/></clipPath></defs><g clip-path="url(#f8445bb695)"><path fill="#f7931e" d="M 35.632812 2.382812 L 168.636719 2.382812 L 168.636719 168.636719 L 2.382812 168.636719 L 2.382812 35.632812 C 2.382812 17.289062 17.289062 2.382812 35.632812 2.382812 Z M 35.632812 2.382812 " fill-opacity="1" fill-rule="nonzero"/></g><g clip-path="url(#e31dd43a6b)"><path fill="#29abe2" d="M 2.382812 168.636719 L 168.636719 168.636719 L 168.636719 334.890625 L 35.632812 334.890625 C 17.289062 334.890625 2.382812 319.984375 2.382812 301.640625 Z M 2.382812 168.636719 " fill-opacity="1" fill-rule="nonzero"/></g><g clip-path="url(#79634ed37e)"><path fill="#e6e6e6" d="M 168.636719 2.382812 L 301.640625 2.382812 C 319.984375 2.382812 334.890625 17.289062 334.890625 35.632812 L 334.890625 168.636719 L 168.636719 168.636719 Z M 168.636719 2.382812 " fill-opacity="1" fill-rule="nonzero"/></g><g clip-path="url(#478a6eae84)"><path fill="#8cc63f" d="M 168.636719 168.636719 L 334.890625 168.636719 L 334.890625 301.640625 C 334.890625 319.984375 319.984375 334.890625 301.640625 334.890625 L 168.636719 334.890625 Z M 168.636719 168.636719 " fill-opacity="1" fill-rule="nonzero"/></g><path fill="#ffcf00" d="M 107.675781 85.507812 C 107.675781 86.234375 107.640625 86.960938 107.570312 87.683594 C 107.5 88.40625 107.390625 89.121094 107.25 89.832031 C 107.109375 90.546875 106.933594 91.25 106.722656 91.945312 C 106.511719 92.640625 106.265625 93.320312 105.988281 93.992188 C 105.710938 94.664062 105.402344 95.320312 105.058594 95.957031 C 104.714844 96.597656 104.34375 97.222656 103.941406 97.824219 C 103.539062 98.429688 103.105469 99.011719 102.644531 99.570312 C 102.183594 100.132812 101.695312 100.671875 101.183594 101.183594 C 100.671875 101.695312 100.132812 102.183594 99.570312 102.644531 C 99.011719 103.105469 98.429688 103.539062 97.824219 103.941406 C 97.222656 104.34375 96.597656 104.714844 95.957031 105.058594 C 95.320312 105.402344 94.664062 105.710938 93.992188 105.988281 C 93.320312 106.265625 92.640625 106.511719 91.945312 106.722656 C 91.25 106.933594 90.546875 107.109375 89.832031 107.25 C 89.121094 107.390625 88.40625 107.5 87.683594 107.570312 C 86.960938 107.640625 86.234375 107.675781 85.507812 107.675781 C 84.785156 107.675781 84.058594 107.640625 83.335938 107.570312 C 82.613281 107.5 81.898438 107.390625 81.183594 107.25 C 80.472656 107.109375 79.769531 106.933594 79.074219 106.722656 C 78.378906 106.511719 77.695312 106.265625 77.027344 105.988281 C 76.355469 105.710938 75.699219 105.402344 75.058594 105.058594 C 74.417969 104.714844 73.796875 104.34375 73.195312 103.941406 C 72.589844 103.539062 72.007812 103.105469 71.445312 102.644531 C 70.886719 102.183594 70.347656 101.695312 69.835938 101.183594 C 69.320312 100.671875 68.835938 100.132812 68.375 99.570312 C 67.914062 99.011719 67.480469 98.429688 67.078125 97.824219 C 66.675781 97.222656 66.300781 96.597656 65.960938 95.957031 C 65.617188 95.320312 65.308594 94.664062 65.03125 93.992188 C 64.75 93.320312 64.507812 92.640625 64.296875 91.945312 C 64.085938 91.25 63.910156 90.546875 63.769531 89.832031 C 63.625 89.121094 63.519531 88.40625 63.449219 87.683594 C 63.378906 86.960938 63.34375 86.234375 63.34375 85.507812 C 63.34375 84.785156 63.378906 84.058594 63.449219 83.335938 C 63.519531 82.613281 63.625 81.898438 63.769531 81.183594 C 63.910156 80.472656 64.085938 79.769531 64.296875 79.074219 C 64.507812 78.378906 64.75 77.695312 65.03125 77.027344 C 65.308594 76.355469 65.617188 75.699219 65.960938 75.058594 C 66.300781 74.417969 66.675781 73.796875 67.078125 73.195312 C 67.480469 72.589844 67.914062 72.007812 68.375 71.445312 C 68.835938 70.886719 69.320312 70.347656 69.835938 69.835938 C 70.347656 69.320312 70.886719 68.835938 71.445312 68.375 C 72.007812 67.914062 72.589844 67.480469 73.195312 67.078125 C 73.796875 66.675781 74.417969 66.300781 75.058594 65.960938 C 75.699219 65.617188 76.355469 65.308594 77.027344 65.03125 C 77.695312 64.75 78.378906 64.507812 79.074219 64.296875 C 79.769531 64.085938 80.472656 63.910156 81.183594 63.769531 C 81.898438 63.625 82.613281 63.519531 83.335938 63.449219 C 84.058594 63.378906 84.785156 63.34375 85.507812 63.34375 C 86.234375 63.34375 86.960938 63.378906 87.683594 63.449219 C 88.40625 63.519531 89.121094 63.625 89.832031 63.769531 C 90.546875 63.910156 91.25 64.085938 91.945312 64.296875 C 92.640625 64.507812 93.320312 64.75 93.992188 65.03125 C 94.664062 65.308594 95.320312 65.617188 95.957031 65.960938 C 96.597656 66.300781 97.222656 66.675781 97.824219 67.078125 C 98.429688 67.480469 99.011719 67.914062 99.570312 68.375 C 100.132812 68.835938 100.671875 69.320312 101.183594 69.835938 C 101.695312 70.347656 102.183594 70.886719 102.644531 71.445312 C 103.105469 72.007812 103.539062 72.589844 103.941406 73.195312 C 104.34375 73.796875 104.714844 74.417969 105.058594 75.058594 C 105.402344 75.699219 105.710938 76.355469 105.988281 77.027344 C 106.265625 77.695312 106.511719 78.378906 106.722656 79.074219 C 106.933594 79.769531 107.109375 80.472656 107.25 81.183594 C 107.390625 81.898438 107.5 82.613281 107.570312 83.335938 C 107.640625 84.058594 107.675781 84.785156 107.675781 85.507812 Z M 107.675781 85.507812 " fill-opacity="1" fill-rule="nonzero"/><path fill="#ffcf00" d="M 85.507812 52.257812 C 82.460938 52.257812 79.96875 49.765625 79.96875 46.71875 L 79.96875 30.089844 C 79.96875 27.042969 82.460938 24.550781 85.507812 24.550781 C 88.558594 24.550781 91.050781 27.042969 91.050781 30.089844 L 91.050781 46.71875 C 91.050781 49.765625 88.558594 52.257812 85.507812 52.257812 Z M 85.507812 52.257812 " fill-opacity="1" fill-rule="nonzero"/><path fill="#ffcf00" d="M 66.113281 57.46875 C 64.171875 57.46875 62.34375 56.46875 61.292969 54.695312 L 55.75 45.109375 C 54.199219 42.449219 55.140625 39.070312 57.800781 37.515625 C 60.460938 35.964844 63.839844 36.90625 65.394531 39.566406 L 70.933594 49.15625 C 72.484375 51.816406 71.542969 55.195312 68.882812 56.746094 C 67.996094 57.246094 67.054688 57.46875 66.113281 57.46875 Z M 66.113281 57.46875 " fill-opacity="1" fill-rule="nonzero"/><path fill="#ffcf00" d="M 50.597656 71.65625 C 49.710938 71.65625 48.765625 71.433594 47.9375 70.933594 L 32.972656 62.621094 C 30.3125 61.125 29.316406 57.746094 30.8125 55.085938 C 32.308594 52.425781 35.6875 51.425781 38.347656 52.921875 L 53.3125 61.234375 C 55.972656 62.734375 56.96875 66.113281 55.472656 68.773438 C 54.476562 70.601562 52.589844 71.597656 50.597656 71.597656 Z M 50.597656 71.65625 " fill-opacity="1" fill-rule="nonzero"/><path fill="#ffcf00" d="M 46.71875 91.050781 L 35.632812 91.050781 C 32.585938 91.050781 30.089844 88.558594 30.089844 85.507812 C 30.089844 82.460938 32.585938 79.96875 35.632812 79.96875 L 46.71875 79.96875 C 49.765625 79.96875 52.257812 82.460938 52.257812 85.507812 C 52.257812 88.558594 49.765625 91.050781 46.71875 91.050781 Z M 46.71875 91.050781 " fill-opacity="1" fill-rule="nonzero"/><path fill="#ffcf00" d="M 35.632812 118.761719 C 33.695312 118.761719 31.808594 117.707031 30.757812 115.933594 C 29.261719 113.273438 30.257812 109.894531 32.917969 108.398438 L 47.878906 100.085938 C 50.539062 98.589844 53.921875 99.585938 55.417969 102.246094 C 56.914062 104.90625 55.917969 108.285156 53.257812 109.78125 L 38.292969 118.09375 C 37.460938 118.59375 36.519531 118.816406 35.632812 118.816406 Z M 35.632812 118.761719 " fill-opacity="1" fill-rule="nonzero"/><path fill="#ffcf00" d="M 60.570312 134.222656 C 59.628906 134.222656 58.6875 134 57.800781 133.5 C 55.140625 131.949219 54.253906 128.570312 55.75 125.910156 L 61.292969 116.320312 C 62.84375 113.660156 66.222656 112.773438 68.882812 114.269531 C 71.542969 115.824219 72.429688 119.203125 70.933594 121.863281 L 65.394531 131.449219 C 64.339844 133.222656 62.511719 134.222656 60.570312 134.222656 Z M 60.570312 134.222656 " fill-opacity="1" fill-rule="nonzero"/><path fill="#ffcf00" d="M 85.507812 146.46875 C 82.460938 146.46875 79.96875 143.976562 79.96875 140.925781 L 79.96875 124.300781 C 79.96875 121.253906 82.460938 118.761719 85.507812 118.761719 C 88.558594 118.761719 91.050781 121.253906 91.050781 124.300781 L 91.050781 140.925781 C 91.050781 143.976562 88.558594 146.46875 85.507812 146.46875 Z M 85.507812 146.46875 " fill-opacity="1" fill-rule="nonzero"/><path fill="#ffcf00" d="M 110.449219 134.222656 C 108.507812 134.222656 106.679688 133.222656 105.625 131.449219 L 100.085938 121.863281 C 98.53125 119.203125 99.476562 115.824219 102.132812 114.269531 C 104.792969 112.71875 108.175781 113.660156 109.726562 116.320312 L 115.269531 125.910156 C 116.820312 128.570312 115.878906 131.949219 113.21875 133.5 C 112.332031 134 111.390625 134.222656 110.449219 134.222656 Z M 110.449219 134.222656 " fill-opacity="1" fill-rule="nonzero"/><path fill="#ffcf00" d="M 135.386719 118.761719 C 134.5 118.761719 133.558594 118.539062 132.726562 118.039062 L 117.761719 109.726562 C 115.101562 108.230469 114.105469 104.851562 115.601562 102.191406 C 117.097656 99.53125 120.476562 98.53125 123.136719 100.027344 L 138.101562 108.339844 C 140.761719 109.835938 141.757812 113.21875 140.261719 115.878906 C 139.265625 117.707031 137.378906 118.703125 135.386719 118.703125 Z M 135.386719 118.761719 " fill-opacity="1" fill-rule="nonzero"/><path fill="#ffcf00" d="M 135.386719 91.050781 L 124.300781 91.050781 C 121.253906 91.050781 118.761719 88.558594 118.761719 85.507812 C 118.761719 82.460938 121.253906 79.96875 124.300781 79.96875 L 135.386719 79.96875 C 138.433594 79.96875 140.925781 82.460938 140.925781 85.507812 C 140.925781 88.558594 138.433594 91.050781 135.386719 91.050781 Z M 135.386719 91.050781 " fill-opacity="1" fill-rule="nonzero"/><path fill="#ffcf00" d="M 120.421875 71.65625 C 118.484375 71.65625 116.597656 70.601562 115.546875 68.828125 C 114.050781 66.167969 115.046875 62.789062 117.707031 61.292969 L 132.671875 52.980469 C 135.328125 51.484375 138.710938 52.480469 140.207031 55.140625 C 141.703125 57.800781 140.707031 61.179688 138.046875 62.675781 L 123.082031 70.988281 C 122.25 71.488281 121.308594 71.710938 120.421875 71.710938 Z M 120.421875 71.65625 " fill-opacity="1" fill-rule="nonzero"/><path fill="#ffcf00" d="M 104.90625 57.46875 C 103.964844 57.46875 103.019531 57.246094 102.132812 56.746094 C 99.476562 55.195312 98.589844 51.816406 100.085938 49.15625 L 105.625 39.566406 C 107.175781 36.90625 110.558594 36.019531 113.21875 37.515625 C 115.878906 39.070312 116.765625 42.449219 115.269531 45.109375 L 109.726562 54.695312 C 108.675781 56.46875 106.84375 57.46875 104.90625 57.46875 Z M 104.90625 57.46875 " fill-opacity="1" fill-rule="nonzero"/><path fill="#ffc000" d="M 85.507812 63.34375 C 76.53125 63.34375 68.828125 68.71875 65.335938 76.421875 C 68.109375 75.144531 71.15625 74.425781 74.425781 74.425781 C 86.671875 74.425781 96.59375 84.34375 96.59375 96.59375 C 96.59375 99.863281 95.871094 102.910156 94.597656 105.679688 C 102.300781 102.191406 107.675781 94.488281 107.675781 85.507812 C 107.675781 73.261719 97.757812 63.34375 85.507812 63.34375 Z M 85.507812 63.34375 " fill-opacity="1" fill-rule="nonzero"/><path fill="#7fcdee" d="M 251.761719 91.050781 C 248.714844 91.050781 246.222656 88.558594 246.222656 85.507812 L 246.222656 30.089844 C 246.222656 27.042969 248.714844 24.550781 251.761719 24.550781 C 254.8125 24.550781 257.304688 27.042969 257.304688 30.089844 L 257.304688 85.507812 C 257.304688 88.558594 254.8125 91.050781 251.761719 91.050781 Z M 251.761719 91.050781 " fill-opacity="1" fill-rule="nonzero"/><path fill="#7fcdee" d="M 251.761719 57.800781 C 250.320312 57.800781 248.9375 57.246094 247.828125 56.191406 C 245.667969 54.03125 245.667969 50.539062 247.828125 48.378906 L 264.453125 31.753906 C 266.613281 29.59375 270.105469 29.59375 272.269531 31.753906 C 274.429688 33.914062 274.429688 37.40625 272.269531 39.566406 L 255.640625 56.191406 C 254.535156 57.300781 253.148438 57.800781 251.707031 57.800781 Z M 251.761719 57.800781 " fill-opacity="1" fill-rule="nonzero"/><path fill="#7fcdee" d="M 251.761719 57.800781 C 250.320312 57.800781 248.9375 57.246094 247.828125 56.191406 L 231.203125 39.566406 C 229.042969 37.40625 229.042969 33.914062 231.203125 31.753906 C 233.363281 29.59375 236.855469 29.59375 239.015625 31.753906 L 255.640625 48.378906 C 257.804688 50.539062 257.804688 54.03125 255.640625 56.191406 C 254.535156 57.300781 253.148438 57.800781 251.707031 57.800781 Z M 251.761719 57.800781 " fill-opacity="1" fill-rule="nonzero"/><path fill="#7fcdee" d="M 251.761719 91.050781 C 251.207031 91.050781 250.65625 90.996094 250.15625 90.828125 L 194.738281 73.707031 C 191.800781 72.820312 190.195312 69.714844 191.082031 66.777344 C 191.96875 63.839844 195.070312 62.234375 198.007812 63.121094 L 253.425781 80.246094 C 256.363281 81.132812 257.96875 84.234375 257.082031 87.171875 C 256.363281 89.554688 254.144531 91.105469 251.761719 91.105469 Z M 251.761719 91.050781 " fill-opacity="1" fill-rule="nonzero"/><path fill="#7fcdee" d="M 218.511719 80.796875 C 216.515625 80.796875 214.632812 79.746094 213.636719 77.863281 L 202.386719 56.914062 C 200.945312 54.199219 201.941406 50.875 204.65625 49.433594 C 207.375 47.992188 210.699219 48.988281 212.140625 51.703125 L 223.390625 72.652344 C 224.828125 75.367188 223.832031 78.691406 221.117188 80.132812 C 220.285156 80.578125 219.398438 80.796875 218.511719 80.796875 Z M 218.511719 80.796875 " fill-opacity="1" fill-rule="nonzero"/><path fill="#7fcdee" d="M 196.511719 91.4375 C 194.460938 91.4375 192.464844 90.273438 191.523438 88.335938 C 190.195312 85.566406 191.359375 82.238281 194.074219 80.910156 L 216.128906 70.214844 C 218.898438 68.882812 222.226562 70.046875 223.554688 72.761719 C 224.886719 75.480469 223.722656 78.859375 221.007812 80.1875 L 198.949219 90.886719 C 198.175781 91.273438 197.34375 91.4375 196.566406 91.4375 Z M 196.511719 91.4375 " fill-opacity="1" fill-rule="nonzero"/><path fill="#7fcdee" d="M 219.175781 135.664062 C 218.070312 135.664062 216.90625 135.328125 215.90625 134.609375 C 213.414062 132.78125 212.914062 129.34375 214.6875 126.851562 L 247.273438 82.238281 C 249.101562 79.746094 252.539062 79.246094 255.03125 81.019531 C 257.527344 82.792969 258.023438 86.285156 256.25 88.777344 L 223.667969 133.390625 C 222.558594 134.886719 220.894531 135.664062 219.175781 135.664062 Z M 219.175781 135.664062 " fill-opacity="1" fill-rule="nonzero"/><path fill="#7fcdee" d="M 208.980469 121.476562 C 206.320312 121.476562 203.9375 119.535156 203.492188 116.820312 C 202.996094 113.773438 205.101562 110.945312 208.09375 110.503906 L 231.3125 106.84375 C 234.304688 106.402344 237.1875 108.453125 237.632812 111.445312 C 238.128906 114.492188 236.023438 117.320312 233.03125 117.761719 L 209.8125 121.421875 C 209.535156 121.421875 209.257812 121.476562 208.925781 121.476562 Z M 208.980469 121.476562 " fill-opacity="1" fill-rule="nonzero"/><path fill="#7fcdee" d="M 235.914062 140.925781 C 233.253906 140.925781 230.871094 138.988281 230.425781 136.273438 L 226.769531 113.164062 C 226.269531 110.113281 228.375 107.289062 231.371094 106.789062 C 234.472656 106.347656 237.242188 108.398438 237.6875 111.390625 L 241.34375 134.5 C 241.84375 137.546875 239.738281 140.375 236.746094 140.871094 C 236.46875 140.871094 236.136719 140.925781 235.859375 140.925781 Z M 235.914062 140.925781 " fill-opacity="1" fill-rule="nonzero"/><path fill="#7fcdee" d="M 284.347656 135.664062 C 282.628906 135.664062 280.96875 134.886719 279.859375 133.390625 L 247.273438 88.777344 C 245.445312 86.285156 246 82.847656 248.492188 81.019531 C 250.988281 79.191406 254.421875 79.746094 256.25 82.238281 L 288.835938 126.851562 C 290.667969 129.34375 290.113281 132.78125 287.617188 134.609375 C 286.621094 135.328125 285.511719 135.664062 284.347656 135.664062 Z M 284.347656 135.664062 " fill-opacity="1" fill-rule="nonzero"/><path fill="#7fcdee" d="M 267.613281 140.925781 C 267.335938 140.925781 267.058594 140.925781 266.726562 140.871094 C 263.734375 140.375 261.628906 137.546875 262.125 134.5 L 265.785156 111.390625 C 266.28125 108.398438 269.054688 106.347656 272.101562 106.789062 C 275.09375 107.289062 277.199219 110.113281 276.699219 113.164062 L 273.042969 136.273438 C 272.601562 138.988281 270.273438 140.925781 267.558594 140.925781 Z M 267.613281 140.925781 " fill-opacity="1" fill-rule="nonzero"/><path fill="#7fcdee" d="M 294.546875 121.476562 C 294.269531 121.476562 293.992188 121.476562 293.660156 121.421875 L 270.4375 117.761719 C 267.390625 117.265625 265.339844 114.4375 265.839844 111.445312 C 266.339844 108.453125 269.164062 106.347656 272.15625 106.84375 L 295.375 110.503906 C 298.425781 111 300.476562 113.828125 299.976562 116.820312 C 299.535156 119.535156 297.207031 121.476562 294.488281 121.476562 Z M 294.546875 121.476562 " fill-opacity="1" fill-rule="nonzero"/><path fill="#7fcdee" d="M 251.761719 91.050781 C 249.378906 91.050781 247.21875 89.5 246.441406 87.117188 C 245.554688 84.179688 247.164062 81.074219 250.101562 80.1875 L 305.519531 63.066406 C 308.457031 62.179688 311.558594 63.785156 312.445312 66.722656 C 313.332031 69.660156 311.726562 72.761719 308.789062 73.648438 L 253.371094 90.773438 C 252.816406 90.941406 252.261719 90.996094 251.761719 90.996094 Z M 251.761719 91.050781 " fill-opacity="1" fill-rule="nonzero"/><path fill="#7fcdee" d="M 307.015625 91.4375 C 306.183594 91.4375 305.40625 91.273438 304.632812 90.886719 L 282.574219 80.1875 C 279.804688 78.859375 278.695312 75.535156 280.027344 72.761719 C 281.355469 69.992188 284.679688 68.882812 287.453125 70.214844 L 309.507812 80.910156 C 312.28125 82.238281 313.386719 85.566406 312.058594 88.335938 C 311.117188 90.332031 309.121094 91.4375 307.070312 91.4375 Z M 307.015625 91.4375 " fill-opacity="1" fill-rule="nonzero"/><path fill="#7fcdee" d="M 285.015625 80.796875 C 284.128906 80.796875 283.242188 80.578125 282.410156 80.132812 C 279.695312 78.691406 278.695312 75.3125 280.136719 72.652344 L 291.386719 51.703125 C 292.828125 48.988281 296.207031 47.992188 298.867188 49.433594 C 301.582031 50.875 302.582031 54.253906 301.140625 56.914062 L 289.890625 77.863281 C 288.894531 79.746094 286.953125 80.796875 285.015625 80.796875 Z M 285.015625 80.796875 " fill-opacity="1" fill-rule="nonzero"/><path fill="#29abe2" d="M 312.058594 88.335938 C 311.058594 90.273438 309.066406 91.4375 307.015625 91.4375 C 306.238281 91.4375 305.40625 91.273438 304.632812 90.886719 L 284.570312 81.1875 L 260.796875 88.5 L 274.429688 107.179688 L 295.375 110.449219 C 298.425781 110.945312 300.476562 113.773438 300.03125 116.820312 C 299.589844 119.535156 297.207031 121.476562 294.546875 121.476562 C 294.269531 121.476562 293.9375 121.476562 293.660156 121.421875 L 283.683594 119.8125 L 288.835938 126.851562 C 290.609375 129.34375 290.058594 132.78125 287.617188 134.609375 C 286.621094 135.328125 285.457031 135.664062 284.347656 135.664062 C 282.628906 135.664062 280.96875 134.886719 279.859375 133.390625 L 274.707031 126.296875 L 273.097656 136.273438 C 272.65625 138.988281 270.328125 140.925781 267.613281 140.925781 C 267.335938 140.925781 267.058594 140.925781 266.78125 140.871094 C 263.734375 140.375 261.683594 137.546875 262.179688 134.5 L 265.453125 113.660156 L 257.527344 102.855469 L 246.222656 68.882812 L 246.222656 54.53125 L 231.203125 39.566406 C 229.042969 37.40625 229.042969 33.859375 231.203125 31.699219 C 233.363281 29.539062 236.910156 29.539062 239.074219 31.699219 L 246.222656 38.902344 L 246.222656 30.089844 C 246.222656 27.042969 248.714844 24.550781 251.761719 24.550781 C 254.8125 24.550781 257.304688 27.042969 257.304688 30.089844 L 257.304688 38.902344 L 264.453125 31.699219 C 266.613281 29.539062 270.160156 29.539062 272.324219 31.699219 C 274.484375 33.859375 274.484375 37.40625 272.324219 39.566406 L 257.304688 54.53125 L 257.304688 77.972656 L 281.191406 70.601562 L 291.332031 51.648438 C 292.828125 48.988281 296.152344 47.9375 298.867188 49.375 C 301.527344 50.875 302.582031 54.199219 301.140625 56.914062 L 296.261719 65.945312 L 305.574219 63.066406 C 308.457031 62.179688 311.558594 63.839844 312.5 66.722656 C 313.386719 69.660156 311.726562 72.761719 308.789062 73.707031 L 300.085938 76.367188 L 309.453125 80.910156 C 312.222656 82.238281 313.386719 85.566406 312.058594 88.335938 Z M 312.058594 88.335938 " fill-opacity="1" fill-rule="nonzero"/><path fill="#99d7f1" d="M 273.929688 279.472656 C 273.929688 297.816406 259.023438 312.722656 240.679688 312.722656 C 222.335938 312.722656 207.429688 297.816406 207.429688 279.472656 C 207.429688 261.128906 235.136719 218.511719 240.679688 218.511719 C 246.222656 218.511719 273.929688 261.128906 273.929688 279.472656 Z M 273.929688 279.472656 " fill-opacity="1" fill-rule="nonzero"/><path fill="#7fcdee" d="M 273.929688 279.472656 C 273.929688 291.496094 267.558594 302.027344 257.96875 307.847656 C 261.074219 302.804688 262.847656 296.929688 262.847656 290.554688 C 262.847656 272.601562 236.300781 231.425781 229.984375 229.652344 C 234.75 223 238.90625 218.511719 240.679688 218.511719 C 246.222656 218.511719 273.929688 261.128906 273.929688 279.472656 Z M 273.929688 279.472656 " fill-opacity="1" fill-rule="nonzero"/><path fill="#99d7f1" d="M 229.597656 240.679688 C 229.597656 249.878906 222.167969 257.304688 212.96875 257.304688 C 203.769531 257.304688 196.34375 249.878906 196.34375 240.679688 C 196.34375 231.480469 207.429688 207.429688 212.96875 207.429688 C 218.511719 207.429688 229.597656 231.480469 229.597656 240.679688 Z M 229.597656 240.679688 " fill-opacity="1" fill-rule="nonzero"/><path fill="#7fcdee" d="M 229.597656 240.679688 C 229.597656 246.71875 226.4375 251.984375 221.617188 254.867188 C 223.167969 252.371094 224.054688 249.378906 224.054688 246.222656 C 224.054688 237.023438 212.96875 212.96875 207.429688 212.96875 C 207.261719 212.96875 207.039062 213.027344 206.820312 213.027344 C 209.089844 209.644531 211.308594 207.429688 212.96875 207.429688 C 218.511719 207.429688 229.597656 231.480469 229.597656 240.679688 Z M 229.597656 240.679688 " fill-opacity="1" fill-rule="nonzero"/><path fill="#99d7f1" d="M 307.179688 224.054688 C 307.179688 233.253906 299.753906 240.679688 290.554688 240.679688 C 281.355469 240.679688 273.929688 233.253906 273.929688 224.054688 C 273.929688 214.855469 285.015625 190.804688 290.554688 190.804688 C 296.097656 190.804688 307.179688 214.855469 307.179688 224.054688 Z M 307.179688 224.054688 " fill-opacity="1" fill-rule="nonzero"/><path fill="#7fcdee" d="M 307.179688 224.054688 C 307.179688 230.09375 304.023438 235.359375 299.199219 238.242188 C 300.753906 235.746094 301.640625 232.753906 301.640625 229.597656 C 301.640625 220.398438 290.554688 196.34375 285.015625 196.34375 C 284.847656 196.34375 284.625 196.402344 284.402344 196.402344 C 286.675781 193.019531 288.894531 190.804688 290.554688 190.804688 C 296.097656 190.804688 307.179688 214.855469 307.179688 224.054688 Z M 307.179688 224.054688 " fill-opacity="1" fill-rule="nonzero"/><path fill="#99d7f1" d="M 139.652344 224.773438 C 139.652344 221.0625 136.492188 218.011719 132.613281 218.011719 C 130.898438 218.011719 129.34375 218.625 128.125 219.621094 C 124.578125 215.574219 119.203125 212.96875 113.21875 212.96875 C 107.234375 212.96875 101.914062 215.574219 98.3125 219.621094 C 97.089844 218.625 95.539062 218.011719 93.820312 218.011719 C 89.941406 218.011719 86.785156 221.0625 86.785156 224.773438 C 79.96875 224.773438 74.425781 230.039062 74.425781 236.578125 C 74.425781 243.117188 79.96875 248.382812 86.785156 248.382812 C 88.226562 248.382812 89.609375 248.105469 90.886719 247.71875 C 91.992188 250.101562 94.429688 251.761719 97.367188 251.761719 C 100.304688 251.761719 102.746094 250.101562 103.796875 247.71875 C 106.566406 249.214844 109.78125 250.046875 113.21875 250.046875 C 116.652344 250.046875 119.867188 249.214844 122.640625 247.71875 C 123.746094 250.101562 126.1875 251.761719 129.066406 251.761719 C 131.949219 251.761719 134.441406 250.101562 135.550781 247.71875 C 136.828125 248.160156 138.210938 248.382812 139.652344 248.382812 C 146.46875 248.382812 152.011719 243.117188 152.011719 236.578125 C 152.011719 230.039062 146.46875 224.773438 139.652344 224.773438 Z M 139.652344 224.773438 " fill-opacity="1" fill-rule="nonzero"/><path fill="#7fcdee" d="M 152.011719 236.578125 C 152.011719 240.734375 149.792969 244.390625 146.414062 246.441406 C 145.75 240.457031 140.484375 235.859375 134.109375 235.859375 C 134.109375 232.144531 130.953125 229.097656 127.074219 229.097656 C 125.355469 229.097656 123.804688 229.707031 122.582031 230.703125 C 118.980469 226.660156 113.660156 224.054688 107.675781 224.054688 C 101.691406 224.054688 96.371094 226.660156 92.769531 230.703125 C 91.550781 229.707031 90 229.097656 88.28125 229.097656 C 84.402344 229.097656 81.242188 232.144531 81.242188 235.859375 C 78.75 235.859375 76.476562 236.578125 74.480469 237.742188 C 74.425781 237.355469 74.425781 236.964844 74.425781 236.578125 C 74.425781 230.039062 79.96875 224.773438 86.785156 224.773438 C 86.785156 221.0625 89.941406 218.011719 93.820312 218.011719 C 95.539062 218.011719 97.089844 218.625 98.3125 219.621094 C 101.914062 215.574219 107.234375 212.96875 113.21875 212.96875 C 119.203125 212.96875 124.523438 215.574219 128.125 219.621094 C 129.34375 218.625 130.898438 218.011719 132.613281 218.011719 C 136.492188 218.011719 139.652344 221.0625 139.652344 224.773438 C 146.46875 224.773438 152.011719 230.039062 152.011719 236.578125 Z M 152.011719 236.578125 " fill-opacity="1" fill-rule="nonzero"/><path fill="#99d7f1" d="M 121.53125 248.160156 C 121.53125 242.285156 116.542969 237.574219 110.449219 237.574219 C 107.730469 237.574219 105.292969 238.519531 103.355469 240.070312 C 97.757812 233.695312 89.386719 229.597656 79.96875 229.597656 C 70.546875 229.597656 62.179688 233.695312 56.582031 240.070312 C 54.640625 238.519531 52.203125 237.574219 49.488281 237.574219 C 43.390625 237.574219 38.402344 242.34375 38.402344 248.160156 C 27.707031 248.160156 19.007812 256.472656 19.007812 266.726562 C 19.007812 276.976562 27.707031 285.289062 38.402344 285.289062 C 40.675781 285.289062 42.835938 284.902344 44.886719 284.238281 C 46.605469 288.007812 50.484375 290.609375 55.03125 290.609375 C 59.574219 290.609375 63.453125 288.007812 65.171875 284.292969 C 69.550781 286.621094 74.59375 287.949219 79.96875 287.949219 C 85.34375 287.949219 90.386719 286.621094 94.765625 284.292969 C 96.480469 288.007812 100.359375 290.609375 104.90625 290.609375 C 109.449219 290.609375 113.382812 288.007812 115.046875 284.238281 C 117.097656 284.902344 119.257812 285.289062 121.53125 285.289062 C 132.226562 285.289062 140.925781 276.976562 140.925781 266.726562 C 140.925781 256.472656 132.226562 248.160156 121.53125 248.160156 Z M 121.53125 248.160156 " fill-opacity="1" fill-rule="nonzero"/><path fill="#7fcdee" d="M 135.273438 279.695312 C 135.328125 279.085938 135.386719 278.472656 135.386719 277.808594 C 135.386719 267.558594 126.683594 259.246094 115.988281 259.246094 C 115.988281 253.371094 111 248.605469 104.90625 248.605469 C 102.191406 248.605469 99.75 249.601562 97.8125 251.152344 C 92.214844 244.78125 83.847656 240.679688 74.425781 240.679688 C 65.003906 240.679688 56.636719 244.78125 51.039062 251.152344 C 49.101562 249.601562 46.660156 248.605469 43.945312 248.605469 C 37.851562 248.605469 32.863281 253.371094 32.863281 259.246094 C 27.542969 259.246094 22.664062 261.292969 19.175781 264.675781 C 20.226562 255.363281 28.429688 248.160156 38.402344 248.160156 C 38.402344 242.285156 43.390625 237.519531 49.488281 237.519531 C 52.203125 237.519531 54.640625 238.519531 56.582031 240.070312 C 62.179688 233.695312 70.546875 229.597656 79.96875 229.597656 C 89.386719 229.597656 97.757812 233.695312 103.355469 240.070312 C 105.292969 238.519531 107.730469 237.519531 110.449219 237.519531 C 116.542969 237.519531 121.53125 242.285156 121.53125 248.160156 C 132.226562 248.160156 140.925781 256.472656 140.925781 266.726562 C 140.925781 271.769531 138.820312 276.367188 135.273438 279.695312 Z M 135.273438 279.695312 " fill-opacity="1" fill-rule="nonzero"/></svg>